<?xml version="1.0" encoding="UTF-8"?>
<svg id="uuid-e0ad8720-2a20-4d03-b477-c76da5cdc12d" data-name="Layer 4" xmlns="http://www.w3.org/2000/svg" viewBox="0 0 1919.96 1919.96">
  <defs>
    <style>
      .uuid-cce18b89-fc34-414f-aafb-ff74decb9a80 {
        fill: #333;
        stroke-width: 0px;
      }
    </style>
  </defs>
  <path class="uuid-cce18b89-fc34-414f-aafb-ff74decb9a80" d="m.04,788.25H0v263.26c46.19-52.28,98.83-98.89,156.55-138.28,16.31-11.14,35.61-24.32,56.81-38.8V219.38c0-2.36,1.36-4.41,3.34-5.38.8-.41,1.71-.63,2.67-.63,76.28.02,251.28-.04,319.9-.01,173.45,0,314.07,140.61,314.07,314.08,0,57.4-31.4,117.11-66.96,166.61-40.97,57.04-91.95,106.19-149.95,145.78-89.88,61.41-271.32,185.21-361.41,246.77C103.98,1203.3-.13,1397.09.04,1604.18c.09,66.06-.12,235.25-.01,309.77,0,3.32,2.7,6.01,6.03,6.01h844.69c76.17,0,148.35-17.65,212.58-49.1,159.15-77.94,269.4-240.6,269.99-429.33,2.56-192.16-109.03-348.34-260.9-426.91-7.12,8.2-14.41,16.3-21.86,24.32-46.93,50.49-100.05,96.7-158.01,137.49,122.8,19.9,229.01,125.13,227.45,264.01-.1,61.83-21.25,118.73-56.67,163.9-48.81,62.28-124.73,102.3-209.99,102.3H219.37c-3.32,0-6.01-2.69-6.01-6v-100.67c-.08-133.79,67.32-259,177.71-334.54l371.84-254.65c48.65-33.32,93.7-71.65,133.84-114.83C1247.26,518.95,1041.48,5.19,536.63.04,493.63.08,347.78.04,216.7,0,126.98,0,38.17-.01.04.03v788.22Z"/>
  <path class="uuid-cce18b89-fc34-414f-aafb-ff74decb9a80" d="m1919.96.04l-88.85,266.63h-565.48c-5.83-17.33-12.37-34.45-19.62-51.32C1211.17,134.27,1161.07,61.49,1098.33.04h821.63Z"/>
  <path class="uuid-cce18b89-fc34-414f-aafb-ff74decb9a80" d="m1690.86,580.79l-90.86,272.54h-414.84c1.54-2.82,3.05-5.64,4.55-8.46,35.9-67.68,61.66-138.57,76.56-210.69,3.67-17.79,6.68-35.6,9.02-53.39h415.57Z"/>
  <path class="uuid-cce18b89-fc34-414f-aafb-ff74decb9a80" d="m1919.96,1919.96h-571.86c32.22-33.12,61.18-69.53,86.37-108.73,31.81-49.53,56.93-102.59,74.98-157.9h321.66l88.85,266.63Z"/>
</svg>