<?xml version="1.0" encoding="UTF-8"?>
<svg id="uuid-adef64ff-577f-45c1-8163-9a6e001e660a" data-name="Layer 1" xmlns="http://www.w3.org/2000/svg" viewBox="0 0 818.3 809.93">
  <defs>
    <style>
      .uuid-0bf1044b-2282-446c-ad9b-0ea93f47e6ca {
        fill: #fff;
        stroke-width: 0px;
      }
    </style>
  </defs>
  <path class="uuid-0bf1044b-2282-446c-ad9b-0ea93f47e6ca" d="m0,396.33C2.32,214.32,115.62,58.04,289.16,1.45c8-2.61,22.48-1.78,26.14,3.21,4.14,5.65,2.43,19.56-1.86,26.84-82.44,133.6-60,318,61.9,419.22,120.93,106.36,284.69,108.92,414.01,14.92,7.5-1.16,17.37-4,22.23-.51,4.84,3.48,7.79,14.55,6.34,21.13-14.89,68-44.64,128.97-90.93,180.99C498.75,935.46,67.73,799.29,10.06,476.74c-5.17-26.44-6.79-53.58-10.06-80.4Z"/>
</svg>