<?xml version="1.0" encoding="utf-8"?>
<!-- Generator: Adobe Illustrator 27.9.1, SVG Export Plug-In . SVG Version: 6.00 Build 0)  -->
<svg version="1.1" id="uuid-adef64ff-577f-45c1-8163-9a6e001e660a"
	 xmlns="http://www.w3.org/2000/svg" xmlns:xlink="http://www.w3.org/1999/xlink" x="0px" y="0px" viewBox="0 0 818.3 809.9"
	 style="enable-background:new 0 0 818.3 809.9;" xml:space="preserve">
<style type="text/css">
	.st0{fill:#2A2A2A;}
</style>
<path class="st0" d="M0,396.3C2.3,214.3,115.6,58,289.2,1.5c8-2.6,22.5-1.8,26.1,3.2c4.1,5.6,2.4,19.6-1.9,26.8
	c-82.4,133.6-60,318,61.9,419.2c120.9,106.4,284.7,108.9,414,14.9c7.5-1.2,17.4-4,22.2-0.5c4.8,3.5,7.8,14.5,6.3,21.1
	c-14.9,68-44.6,129-90.9,181C498.8,935.5,67.7,799.3,10.1,476.7C4.9,450.3,3.3,423.2,0,396.3L0,396.3z"/>
</svg>
