<?xml version="1.0" encoding="utf-8"?>
<!-- Generator: Adobe Illustrator 27.9.1, SVG Export Plug-In . SVG Version: 6.00 Build 0)  -->
<svg version="1.1" id="uuid-156a8ca7-5829-4366-a42c-b6c1bcfd1209"
	 xmlns="http://www.w3.org/2000/svg" xmlns:xlink="http://www.w3.org/1999/xlink" x="0px" y="0px" viewBox="0 0 1034.7 1033.1"
	 style="enable-background:new 0 0 1034.7 1033.1;" xml:space="preserve">
<style type="text/css">
	.st0{fill:#F4F4F4;}
</style>
<g id="uuid-3faba606-2fab-4336-9bc4-91c581564e86">
	<g>
		<path class="st0" d="M505,1033.1c-9.7-12.4-21.7-23.7-28.8-37.5c-29.4-56.8-57.4-114.3-86.1-172.1
			c-65.2,21.7-129.7,42.7-193.8,64.9c-16.6,5.7-33.9,6.4-43.4-6.5c-7.9-10.7-12.5-29.4-9-41.9c11.5-41.9,27.4-82.7,41.3-124
			c7.8-23,15-46.1,23.1-71.2c-5.8-3.4-11.7-7.3-17.9-10.5c-54-27.1-108.2-53.9-162.1-81.1C3.1,540.6-7.6,519,5.8,499.2
			c8.8-13,25.4-22,40.1-29.6c53.7-27.9,108-54.5,163.2-82.1c-20.2-61.1-39.9-120.8-59.6-180.5c-1.4-4.1-3.8-8.3-3.5-12.3
			c0.8-14.1-1.7-30.7,4.9-41.7c9.4-15.8,27.6-14.8,44.9-9c61,20.6,122.1,40.7,183.2,60.9c2.7,0.9,5.6,1.1,10.9,2
			c30.7-60.3,61.8-120.6,91.9-181.4C489.5,9.8,498,0.3,517.2,0c19.6-0.3,29,10.6,36.4,25.2c26.3,52,52.9,103.8,77.8,156.5
			c9.6,20.4,19.7,25.8,42,17.6c54.4-19.8,109.6-37.6,165.2-53.9c12.9-3.8,32-3.6,42,3.6c14,10,15.8,28.2,9.2,47
			c-22.3,63.4-43.1,127.3-64.8,192.2c56.4,28.3,113.2,56.1,169.2,85.4c14.7,7.7,27,19.8,40.4,29.9v26.3c-10.5,8-20.2,17.6-31.7,23.6
			c-42.7,22.2-86.1,43.1-129.1,64.6c-16.5,8.3-32.8,17-49,25.3c22.3,67.9,43.3,133.8,65.9,199.2c5.3,15.5,2.4,26.7-7.9,37.2
			c-10.8,11.1-22.2,15.2-38.8,9.5c-65.9-22.8-132.4-43.9-199.8-66c-30.1,60.2-59.2,119.5-89.4,178.2c-5.9,11.6-15.7,21.2-23.6,31.7
			H505L505,1033.1z M516,771c139.5,4.2,253.1-116.2,256.8-245.2C777,375.2,659.7,258.7,516,260C368.8,261.4,261.1,374.1,261,514.8
			C260.8,655.7,366.4,769.4,516,771z"/>
		<path class="st0" d="M710.2,517.2c7.7,93.5-83.2,198.8-203.9,192.5c-97.8-5.1-186.1-88.7-184-195.2
			c2.2-111.7,81-191.2,195.1-193.2C623.5,319.4,713.9,406.9,710.2,517.2z"/>
	</g>
</g>
</svg>
