<?xml version="1.0" encoding="UTF-8"?>
<svg id="uuid-156a8ca7-5829-4366-a42c-b6c1bcfd1209" data-name="Layer 1" xmlns="http://www.w3.org/2000/svg" viewBox="0 0 1034.66 1033.13">
  <defs>
    <style>
      .uuid-801e39a4-dc0d-41af-9af4-3267fd4acad8 {
        stroke-width: 0px;
      }
    </style>
  </defs>
  <g id="uuid-3faba606-2fab-4336-9bc4-91c581564e86" data-name="sun">
    <g>
      <path class="uuid-801e39a4-dc0d-41af-9af4-3267fd4acad8" d="m504.97,1033.13c-9.74-12.44-21.69-23.73-28.83-37.51-29.41-56.77-57.36-114.29-86.13-172.09-65.21,21.72-129.67,42.74-193.75,64.86-16.59,5.73-33.87,6.41-43.44-6.48-7.92-10.67-12.47-29.39-9.03-41.94,11.5-41.94,27.4-82.67,41.34-123.96,7.75-22.97,14.96-46.12,23.06-71.22-5.84-3.44-11.68-7.34-17.91-10.46-54-27.09-108.15-53.86-162.08-81.09-25.11-12.68-35.76-34.19-22.4-54.08,8.77-13.05,25.41-21.98,40.14-29.65,53.67-27.91,108.03-54.52,163.19-82.15-20.18-61.12-39.88-120.8-59.57-180.49-1.35-4.08-3.77-8.29-3.54-12.32.79-14.12-1.66-30.69,4.91-41.69,9.43-15.79,27.58-14.83,44.87-8.98,60.97,20.63,122.14,40.71,183.25,60.93,2.67.88,5.57,1.07,10.87,2.04,30.66-60.3,61.82-120.57,91.88-181.39C489.53,9.82,498.04.31,517.22,0c19.6-.31,29.04,10.59,36.44,25.21,26.29,51.98,52.9,103.82,77.76,156.48,9.62,20.38,19.7,25.78,42.05,17.64,54.41-19.83,109.63-37.6,165.18-53.95,12.93-3.81,32.03-3.56,42.01,3.59,13.96,10,15.82,28.21,9.19,47.01-22.33,63.39-43.09,127.33-64.83,192.21,56.41,28.31,113.18,56.13,169.2,85.38,14.68,7.66,27.02,19.78,40.44,29.86v26.27c-10.52,7.98-20.16,17.63-31.7,23.63-42.7,22.19-86.06,43.09-129.09,64.64-16.53,8.28-32.84,16.99-48.95,25.34,22.28,67.87,43.3,133.82,65.88,199.24,5.35,15.5,2.36,26.66-7.94,37.24-10.79,11.08-22.2,15.23-38.79,9.49-65.9-22.78-132.37-43.91-199.82-66.04-30.1,60.24-59.25,119.47-89.39,178.19-5.93,11.56-15.66,21.18-23.64,31.7h-26.27Zm11.05-262.11c139.5,4.19,253.13-116.17,256.75-245.15,4.23-150.66-113.11-267.21-256.74-265.87-147.22,1.37-254.9,114.09-255.06,254.77-.15,140.89,105.45,254.66,255.05,256.25Z"/>
      <path class="uuid-801e39a4-dc0d-41af-9af4-3267fd4acad8" d="m710.17,517.22c7.67,93.5-83.17,198.79-203.94,192.46-97.76-5.12-186.06-88.67-183.96-195.25,2.2-111.71,80.97-191.18,195.14-193.2,106.13-1.87,196.45,85.66,192.76,195.99Z"/>
    </g>
  </g>
</svg>